<?xml version="1.0" encoding="UTF-8"?>
<svg id="Layer_1" data-name="Layer 1" xmlns="http://www.w3.org/2000/svg" version="1.1" viewBox="0 0 398.2 92.5">
  <defs>
    <style>
      .cls-1 {
        fill: #fff;
        stroke-width: 0px;
      }
    </style>
  </defs>
  <path class="cls-1" d="M0,92.5V1.2h18.8v73.8h36.9v17.5H0Z"/>
  <path class="cls-1" d="M93.2,93.8c-6.2,0-11.5-1.1-16-3.4s-8-5.5-10.4-9.6-3.7-8.9-3.7-14.4V27.5c0-5.5,1.2-10.3,3.7-14.4,2.5-4.1,5.9-7.3,10.4-9.6s9.8-3.4,15.9-3.4,11.5,1.1,15.9,3.4,7.9,5.5,10.4,9.6,3.7,8.9,3.7,14.4v38.8c0,5.5-1.2,10.3-3.7,14.4-2.5,4.1-5.9,7.3-10.4,9.6-4.5,2.3-9.7,3.4-15.8,3.4h0ZM93.1,77.5c3.9,0,7-1,9.2-3s3.3-4.8,3.3-8.2V27.5c0-3.5-1.1-6.2-3.3-8.2-2.2-2-5.3-3-9.2-3s-7,1-9.2,3-3.3,4.8-3.3,8.2v38.8c0,3.5,1.1,6.2,3.4,8.2s5.3,3,9.1,3ZM93.1,55.5c-2.6,0-4.7-.8-6.3-2.5-1.6-1.7-2.4-3.8-2.4-6.5s.8-4.8,2.4-6.4c1.6-1.6,3.7-2.4,6.3-2.4s4.8.8,6.4,2.4c1.6,1.6,2.4,3.7,2.4,6.4s-.8,4.8-2.4,6.5c-1.6,1.7-3.7,2.5-6.4,2.5Z"/>
  <path class="cls-1" d="M163.9,93.8c-6.1,0-11.4-1.1-16-3.4s-8.1-5.5-10.7-9.6c-2.5-4.1-3.8-8.9-3.8-14.4V27.5c0-5.6,1.3-10.4,3.8-14.5s6.1-7.3,10.7-9.6c4.6-2.3,9.9-3.4,16-3.4s11.5,1.1,16.1,3.4,8.1,5.5,10.6,9.6,3.8,8.9,3.8,14.5h-18.8c0-3.7-1-6.5-3.1-8.4s-4.9-2.9-8.7-2.9-6.6,1-8.7,2.9c-2,1.9-3.1,4.7-3.1,8.4v38.8c0,3.6,1,6.4,3.1,8.3,2,2,4.9,2.9,8.7,2.9s6.6-1,8.7-2.9c2-2,3.1-4.7,3.1-8.3v-7.9h-13.5v-15.9h32.2v23.8c0,5.5-1.3,10.3-3.8,14.4-2.5,4.1-6.1,7.3-10.6,9.6s-9.9,3.4-16.1,3.4h0Z"/>
  <path class="cls-1" d="M201.7,92.5v-16.2h18.1V17.5h-4.4l-13.8,15v-16.2l12.3-15h34.5v16.2h-9.9v58.8h18.1v16.2h-55,0Z"/>
  <path class="cls-1" d="M294,93.8c-6.1,0-11.4-1.1-16-3.4s-8.1-5.5-10.7-9.6-3.8-8.9-3.8-14.4V27.5c0-5.6,1.3-10.4,3.8-14.5s6.1-7.3,10.7-9.6c4.6-2.3,9.9-3.4,16-3.4s11.5,1.1,16.1,3.4,8.1,5.5,10.6,9.6,3.8,8.9,3.8,14.5h-18.8c0-3.7-1-6.5-3.1-8.4s-4.9-2.9-8.7-2.9-6.6,1-8.7,2.9-3.1,4.7-3.1,8.4v38.8c0,3.6,1,6.4,3.1,8.3,2,2,4.9,2.9,8.7,2.9s6.6-1,8.7-2.9c2-2,3.1-4.7,3.1-8.3h18.8c0,5.5-1.3,10.3-3.8,14.4-2.5,4.1-6.1,7.3-10.6,9.6s-9.9,3.4-16.1,3.4Z"/>
  <path class="cls-1" d="M329.5,92.5L351.9,1.2h23.8l22.6,91.2h-19.1l-4.4-20.6h-21.8l-4.4,20.6h-19.1ZM356.1,56.9h15.4l-4.4-22c-.6-3.2-1.2-6.3-1.8-9.4s-1.1-5.6-1.4-7.3c-.3,1.8-.8,4.2-1.3,7.2s-1.1,6.2-1.8,9.4l-4.6,22.1h0Z"/>
</svg>